<svg width="42" height="42" viewBox="0 0 42 42" fill="none" xmlns="http://www.w3.org/2000/svg">
<g id="Search Icon">
<rect id="Rectangle 4" width="42" height="42" rx="9" fill="#3F3F46"/>
<g id="&#240;&#159;&#166;&#134; icon &#34;search&#34;">
<path id="Vector" d="M25.2937 23.5375H24.3613L24.0308 23.2379C25.4471 21.6841 26.1788 19.5644 25.7776 17.3114C25.2229 14.2261 22.4847 11.7623 19.1801 11.385C14.1877 10.8079 9.98607 14.7588 10.5998 19.4534C11.0011 22.5609 13.6212 25.1357 16.9022 25.6573C19.2981 26.0346 21.5523 25.3465 23.2047 24.0148L23.5233 24.3255V25.2023L28.5393 29.919C29.0232 30.374 29.814 30.374 30.2978 29.919C30.7817 29.464 30.7817 28.7204 30.2978 28.2654L25.2937 23.5375ZM18.2123 23.5375C15.2735 23.5375 12.9012 21.3068 12.9012 18.5433C12.9012 15.7799 15.2735 13.5491 18.2123 13.5491C21.1511 13.5491 23.5233 15.7799 23.5233 18.5433C23.5233 21.3068 21.1511 23.5375 18.2123 23.5375Z" fill="white"/>
</g>
</g>
</svg>
